<?xml version="1.0" standalone="no"?>
<!DOCTYPE svg PUBLIC "-//W3C//DTD SVG 20010904//EN"
 "http://www.w3.org/TR/2001/REC-SVG-20010904/DTD/svg10.dtd">
<svg version="1.0" xmlns="http://www.w3.org/2000/svg"
 width="512.000000pt" height="512.000000pt" viewBox="0 0 512.000000 512.000000"
 preserveAspectRatio="xMidYMid meet">

<g transform="translate(0.000000,512.000000) scale(0.100000,-0.100000)"
fill="#000000" stroke="none">
<path d="M600 5110 c-156 -20 -283 -83 -401 -201 -158 -158 -230 -395 -185
-610 58 -270 272 -480 546 -535 311 -62 635 118 754 418 35 88 46 152 46 258
0 403 -359 720 -760 670z"/>
<path d="M3677 3509 c-115 -8 -264 -36 -369 -70 -99 -32 -260 -114 -332 -169
l-66 -51 0 86 c0 112 -15 150 -67 165 -26 8 -190 10 -541 8 l-504 -3 -24 -28
-24 -28 0 -1675 c0 -1181 3 -1681 11 -1696 25 -46 45 -48 587 -48 347 0 519 4
541 11 64 22 61 -22 61 959 0 893 4 1013 37 1150 57 239 213 359 467 360 210
0 346 -79 406 -237 53 -140 53 -154 59 -1208 3 -539 10 -986 15 -994 25 -39
57 -41 584 -41 347 0 519 4 541 11 64 23 61 -31 61 1056 0 574 -4 1047 -10
1128 -33 452 -148 768 -359 989 -188 196 -444 300 -798 326 -76 5 -145 9 -153
8 -8 0 -64 -4 -123 -9z"/>
<path d="M134 3466 c-20 -9 -35 -25 -43 -46 -8 -24 -11 -478 -11 -1682 0
-1833 -5 -1707 67 -1728 26 -8 196 -10 561 -8 l524 3 24 28 24 28 0 1679 0
1679 -24 28 -24 28 -534 2 c-433 2 -539 0 -564 -11z"/>
</g>
</svg>
